<?xml-stylesheet type="text/css" href="../styles/css/svg-animation.css"?>
<svg width="799" height="572" viewBox="0 0 799 572" fill="none" xmlns="http://www.w3.org/2000/svg">
<g id="undraw_programming_re_kg9v 1" clip-path="url(#clip0_2_108)">
<path id="Vector" d="M465.416 100.837C480.391 100.837 492.53 88.888 492.53 74.1482C492.53 59.4084 480.391 47.4595 465.416 47.4595C450.442 47.4595 438.302 59.4084 438.302 74.1482C438.302 88.888 450.442 100.837 465.416 100.837Z" fill="#CBCBCB"/>
<path id="Vector_2" d="M617.844 55.295C616.961 54.7153 616.067 54.1655 615.184 53.6058C589.646 37.5288 562.273 24.468 533.631 14.6933L526.989 104.873H484.888V1.52926C482.237 0.989503 479.566 0.479734 476.896 -4.95911e-05V104.873H426.863C399.319 104.873 372.904 94.1027 353.428 74.932C333.952 55.7614 323.01 29.7603 323.01 2.64887V2.64878C320.329 3.21852 317.668 3.82825 315.008 4.47796V104.873H274.257L267.93 18.8815C238.496 29.9927 210.553 44.6046 184.722 62.3919C184.275 62.6917 183.828 63.0016 183.392 63.3014C181.147 64.8507 178.934 66.43 176.73 68.0293V412.064H296.831L294.708 383.127L283.03 224.249H518.205L506.527 383.127L504.405 412.064H623.176V58.7735C621.409 57.594 619.632 56.4346 617.844 55.295ZM315.008 198.011H281.101L274.836 112.749H315.008V198.011ZM476.896 198.011H419.948V196.321C419.948 195.509 419.785 194.705 419.469 193.955C419.153 193.205 418.69 192.524 418.106 191.95C417.522 191.376 416.829 190.921 416.067 190.612C415.304 190.302 414.487 190.143 413.662 190.144H388.904C388.08 190.144 387.264 190.304 386.502 190.614C385.741 190.924 385.049 191.379 384.466 191.953C383.883 192.527 383.421 193.208 383.106 193.957C382.791 194.707 382.628 195.51 382.629 196.321V198.011H323.01V112.749H476.896V198.011ZM484.888 198.011V112.749H526.411L520.145 198.011H484.888Z" fill="#3F3D56"/>
<path id="Vector_3" d="M80 433C87.9385 443.654 96.5248 453.667 105.696 462.965L773.304 464C782.475 454.702 791.062 444.689 799 434.035L80 433Z" fill="#3F3D56"/>
<path id="Vector_4" d="M503.099 341.437V427.103C503.1 428.195 503.541 429.241 504.325 430.013C505.11 430.785 506.173 431.219 507.282 431.22H636.253C637.362 431.219 638.425 430.785 639.209 430.013C639.994 429.241 640.435 428.195 640.435 427.103V341.437C640.433 340.347 639.991 339.301 639.207 338.531C638.423 337.76 637.361 337.326 636.253 337.325H507.282C506.174 337.326 505.111 337.76 504.328 338.531C503.544 339.301 503.102 340.347 503.099 341.437V341.437Z" fill="#3F3D56"/>
<path id="Vector_5" d="M506.125 342.503V426.046C506.126 426.629 506.362 427.188 506.781 427.601C507.2 428.013 507.768 428.245 508.36 428.246H635.179C635.771 428.245 636.34 428.013 636.759 427.601C637.178 427.188 637.413 426.629 637.414 426.046V342.503C637.414 341.919 637.179 341.359 636.76 340.946C636.341 340.532 635.772 340.3 635.179 340.298H508.36C507.767 340.3 507.198 340.532 506.779 340.946C506.36 341.359 506.125 341.919 506.125 342.503V342.503Z" fill="#6C63FF"/>
<path id="Vector_6" d="M500.402 443.81C500.638 444.101 500.939 444.337 501.28 444.498C501.622 444.659 501.997 444.741 502.375 444.739H640.473C640.85 444.739 641.223 444.656 641.564 444.495C641.905 444.335 642.205 444.102 642.443 443.814C642.681 443.525 642.85 443.188 642.939 442.826C643.028 442.465 643.034 442.089 642.957 441.725L640.813 431.702C640.724 431.294 640.533 430.913 640.256 430.596C639.98 430.278 639.627 430.034 639.231 429.885C638.943 429.774 638.637 429.718 638.329 429.718H504.511C504.202 429.718 503.896 429.774 503.609 429.885C503.212 430.034 502.86 430.278 502.583 430.596C502.307 430.913 502.116 431.294 502.027 431.702L499.883 441.725C499.807 442.089 499.814 442.464 499.904 442.825C499.993 443.186 500.164 443.522 500.402 443.81V443.81Z" fill="#2F2E41"/>
<path id="Vector_7" d="M633.59 434.035H636.852C637.126 434.035 637.348 433.816 637.348 433.547V432.011C637.348 431.741 637.126 431.523 636.852 431.523H633.59C633.317 431.523 633.095 431.741 633.095 432.011V433.547C633.095 433.816 633.317 434.035 633.59 434.035Z" fill="#3F3D56"/>
<path id="Vector_8" d="M625.084 434.035H628.346C628.619 434.035 628.841 433.816 628.841 433.547V432.011C628.841 431.741 628.619 431.523 628.346 431.523H625.084C624.81 431.523 624.588 431.741 624.588 432.011V433.547C624.588 433.816 624.81 434.035 625.084 434.035Z" fill="#3F3D56"/>
<path id="Vector_9" d="M616.577 434.035H619.839C620.113 434.035 620.335 433.816 620.335 433.547V432.011C620.335 431.741 620.113 431.523 619.839 431.523H616.577C616.303 431.523 616.081 431.741 616.081 432.011V433.547C616.081 433.816 616.303 434.035 616.577 434.035Z" fill="#3F3D56"/>
<path id="Vector_10" d="M608.07 434.035H611.332C611.606 434.035 611.828 433.816 611.828 433.547V432.011C611.828 431.741 611.606 431.523 611.332 431.523H608.07C607.797 431.523 607.575 431.741 607.575 432.011V433.547C607.575 433.816 607.797 434.035 608.07 434.035Z" fill="#3F3D56"/>
<path id="Vector_11" d="M599.564 434.035H602.826C603.099 434.035 603.321 433.816 603.321 433.547V432.011C603.321 431.741 603.099 431.523 602.826 431.523H599.564C599.29 431.523 599.068 431.741 599.068 432.011V433.547C599.068 433.816 599.29 434.035 599.564 434.035Z" fill="#3F3D56"/>
<path id="Vector_12" d="M591.057 434.035H594.319C594.593 434.035 594.815 433.816 594.815 433.547V432.011C594.815 431.741 594.593 431.523 594.319 431.523H591.057C590.783 431.523 590.562 431.741 590.562 432.011V433.547C590.562 433.816 590.783 434.035 591.057 434.035Z" fill="#3F3D56"/>
<path id="Vector_13" d="M582.551 434.035H585.812C586.086 434.035 586.308 433.816 586.308 433.547V432.011C586.308 431.741 586.086 431.523 585.812 431.523H582.551C582.277 431.523 582.055 431.741 582.055 432.011V433.547C582.055 433.816 582.277 434.035 582.551 434.035Z" fill="#3F3D56"/>
<path id="Vector_14" d="M574.044 434.035H577.306C577.579 434.035 577.801 433.816 577.801 433.547V432.011C577.801 431.741 577.579 431.523 577.306 431.523H574.044C573.77 431.523 573.548 431.741 573.548 432.011V433.547C573.548 433.816 573.77 434.035 574.044 434.035Z" fill="#3F3D56"/>
<path id="Vector_15" d="M565.537 434.035H568.799C569.073 434.035 569.295 433.816 569.295 433.547V432.011C569.295 431.741 569.073 431.523 568.799 431.523H565.537C565.263 431.523 565.041 431.741 565.041 432.011V433.547C565.041 433.816 565.263 434.035 565.537 434.035Z" fill="#3F3D56"/>
<path id="Vector_16" d="M557.031 434.035H560.292C560.566 434.035 560.788 433.816 560.788 433.547V432.011C560.788 431.741 560.566 431.523 560.292 431.523H557.031C556.757 431.523 556.535 431.741 556.535 432.011V433.547C556.535 433.816 556.757 434.035 557.031 434.035Z" fill="#3F3D56"/>
<path id="Vector_17" d="M548.524 434.035H551.786C552.06 434.035 552.281 433.816 552.281 433.547V432.011C552.281 431.741 552.06 431.523 551.786 431.523H548.524C548.25 431.523 548.028 431.741 548.028 432.011V433.547C548.028 433.816 548.25 434.035 548.524 434.035Z" fill="#3F3D56"/>
<path id="Vector_18" d="M540.017 434.035H543.279C543.553 434.035 543.775 433.816 543.775 433.547V432.011C543.775 431.741 543.553 431.523 543.279 431.523H540.017C539.743 431.523 539.521 431.741 539.521 432.011V433.547C539.521 433.816 539.743 434.035 540.017 434.035Z" fill="#3F3D56"/>
<path id="Vector_19" d="M531.511 434.035H534.772C535.046 434.035 535.268 433.816 535.268 433.547V432.011C535.268 431.741 535.046 431.523 534.772 431.523H531.511C531.237 431.523 531.015 431.741 531.015 432.011V433.547C531.015 433.816 531.237 434.035 531.511 434.035Z" fill="#3F3D56"/>
<path id="Vector_20" d="M523.004 434.035H526.266C526.54 434.035 526.762 433.816 526.762 433.547V432.011C526.762 431.741 526.54 431.523 526.266 431.523H523.004C522.73 431.523 522.508 431.741 522.508 432.011V433.547C522.508 433.816 522.73 434.035 523.004 434.035Z" fill="#3F3D56"/>
<path id="Vector_21" d="M514.497 434.035H517.759C518.033 434.035 518.255 433.816 518.255 433.547V432.011C518.255 431.741 518.033 431.523 517.759 431.523H514.497C514.223 431.523 514.002 431.741 514.002 432.011V433.547C514.002 433.816 514.223 434.035 514.497 434.035Z" fill="#3F3D56"/>
<path id="Vector_22" d="M505.991 434.035H509.252C509.526 434.035 509.748 433.816 509.748 433.547V432.011C509.748 431.741 509.526 431.523 509.252 431.523H505.991C505.717 431.523 505.495 431.741 505.495 432.011V433.547C505.495 433.816 505.717 434.035 505.991 434.035Z" fill="#3F3D56"/>
<path id="Vector_23" d="M633.691 438.221H636.953C637.227 438.221 637.449 438.003 637.449 437.733V436.197C637.449 435.928 637.227 435.709 636.953 435.709H633.691C633.417 435.709 633.195 435.928 633.195 436.197V437.733C633.195 438.003 633.417 438.221 633.691 438.221Z" fill="#3F3D56"/>
<path id="Vector_24" d="M625.184 438.221H628.446C628.72 438.221 628.942 438.003 628.942 437.733V436.197C628.942 435.928 628.72 435.709 628.446 435.709H625.184C624.911 435.709 624.689 435.928 624.689 436.197V437.733C624.689 438.003 624.911 438.221 625.184 438.221Z" fill="#3F3D56"/>
<path id="Vector_25" d="M616.678 438.221H619.94C620.213 438.221 620.435 438.003 620.435 437.733V436.197C620.435 435.928 620.213 435.709 619.94 435.709H616.678C616.404 435.709 616.182 435.928 616.182 436.197V437.733C616.182 438.003 616.404 438.221 616.678 438.221Z" fill="#3F3D56"/>
<path id="Vector_26" d="M608.171 438.221H611.433C611.707 438.221 611.929 438.003 611.929 437.733V436.197C611.929 435.928 611.707 435.709 611.433 435.709H608.171C607.897 435.709 607.675 435.928 607.675 436.197V437.733C607.675 438.003 607.897 438.221 608.171 438.221Z" fill="#3F3D56"/>
<path id="Vector_27" d="M599.664 438.221H602.926C603.2 438.221 603.422 438.003 603.422 437.733V436.197C603.422 435.928 603.2 435.709 602.926 435.709H599.664C599.391 435.709 599.169 435.928 599.169 436.197V437.733C599.169 438.003 599.391 438.221 599.664 438.221Z" fill="#3F3D56"/>
<path id="Vector_28" d="M591.158 438.221H594.42C594.693 438.221 594.915 438.003 594.915 437.733V436.197C594.915 435.928 594.693 435.709 594.42 435.709H591.158C590.884 435.709 590.662 435.928 590.662 436.197V437.733C590.662 438.003 590.884 438.221 591.158 438.221Z" fill="#3F3D56"/>
<path id="Vector_29" d="M582.651 438.221H585.913C586.187 438.221 586.409 438.003 586.409 437.733V436.197C586.409 435.928 586.187 435.709 585.913 435.709H582.651C582.377 435.709 582.155 435.928 582.155 436.197V437.733C582.155 438.003 582.377 438.221 582.651 438.221Z" fill="#3F3D56"/>
<path id="Vector_30" d="M574.144 438.221H577.406C577.68 438.221 577.902 438.003 577.902 437.733V436.197C577.902 435.928 577.68 435.709 577.406 435.709H574.144C573.871 435.709 573.649 435.928 573.649 436.197V437.733C573.649 438.003 573.871 438.221 574.144 438.221Z" fill="#3F3D56"/>
<path id="Vector_31" d="M565.638 438.221H568.9C569.173 438.221 569.395 438.003 569.395 437.733V436.197C569.395 435.928 569.173 435.709 568.9 435.709H565.638C565.364 435.709 565.142 435.928 565.142 436.197V437.733C565.142 438.003 565.364 438.221 565.638 438.221Z" fill="#3F3D56"/>
<path id="Vector_32" d="M557.131 438.221H560.393C560.667 438.221 560.889 438.003 560.889 437.733V436.197C560.889 435.928 560.667 435.709 560.393 435.709H557.131C556.857 435.709 556.635 435.928 556.635 436.197V437.733C556.635 438.003 556.857 438.221 557.131 438.221Z" fill="#3F3D56"/>
<path id="Vector_33" d="M548.624 438.221H551.886C552.16 438.221 552.382 438.003 552.382 437.733V436.197C552.382 435.928 552.16 435.709 551.886 435.709H548.624C548.351 435.709 548.129 435.928 548.129 436.197V437.733C548.129 438.003 548.351 438.221 548.624 438.221Z" fill="#3F3D56"/>
<path id="Vector_34" d="M540.118 438.221H543.38C543.653 438.221 543.875 438.003 543.875 437.733V436.197C543.875 435.928 543.653 435.709 543.38 435.709H540.118C539.844 435.709 539.622 435.928 539.622 436.197V437.733C539.622 438.003 539.844 438.221 540.118 438.221Z" fill="#3F3D56"/>
<path id="Vector_35" d="M531.611 438.221H534.873C535.147 438.221 535.369 438.003 535.369 437.733V436.197C535.369 435.928 535.147 435.709 534.873 435.709H531.611C531.337 435.709 531.115 435.928 531.115 436.197V437.733C531.115 438.003 531.337 438.221 531.611 438.221Z" fill="#3F3D56"/>
<path id="Vector_36" d="M523.104 438.221H526.366C526.64 438.221 526.862 438.003 526.862 437.733V436.197C526.862 435.928 526.64 435.709 526.366 435.709H523.104C522.831 435.709 522.609 435.928 522.609 436.197V437.733C522.609 438.003 522.831 438.221 523.104 438.221Z" fill="#3F3D56"/>
<path id="Vector_37" d="M514.598 438.221H517.86C518.133 438.221 518.355 438.003 518.355 437.733V436.197C518.355 435.928 518.133 435.709 517.86 435.709H514.598C514.324 435.709 514.102 435.928 514.102 436.197V437.733C514.102 438.003 514.324 438.221 514.598 438.221Z" fill="#3F3D56"/>
<path id="Vector_38" d="M506.091 438.221H509.353C509.627 438.221 509.849 438.003 509.849 437.733V436.197C509.849 435.928 509.627 435.709 509.353 435.709H506.091C505.817 435.709 505.595 435.928 505.595 436.197V437.733C505.595 438.003 505.817 438.221 506.091 438.221Z" fill="#3F3D56"/>
<path id="Vector_39" d="M563.086 443.245H596.121C596.395 443.245 596.617 443.027 596.617 442.757V441.221C596.617 440.952 596.395 440.733 596.121 440.733H563.086C562.812 440.733 562.59 440.952 562.59 441.221V442.757C562.59 443.027 562.812 443.245 563.086 443.245Z" fill="#3F3D56"/>
<g id="upper-half-code">
<path id="Vector_40" d="M528.086 358.576H525.198C524.323 358.576 523.613 359.274 523.613 360.136C523.613 360.998 524.323 361.696 525.198 361.696H528.086C528.962 361.696 529.671 360.998 529.671 360.136C529.671 359.274 528.962 358.576 528.086 358.576Z" fill="white"/>
<path id="Vector_41" d="M561.112 358.576H558.225C557.349 358.576 556.64 359.274 556.64 360.136C556.64 360.998 557.349 361.696 558.225 361.696H561.112C561.988 361.696 562.698 360.998 562.698 360.136C562.698 359.274 561.988 358.576 561.112 358.576Z" fill="white"/>
<path id="Vector_42" d="M570.47 358.576H567.582C566.707 358.576 565.997 359.274 565.997 360.136C565.997 360.998 566.707 361.696 567.582 361.696H570.47C571.345 361.696 572.055 360.998 572.055 360.136C572.055 359.274 571.345 358.576 570.47 358.576Z" fill="white"/>
<path id="Vector_43" d="M552.129 358.315H534.182C533.306 358.315 532.596 359.014 532.596 359.876C532.596 360.737 533.306 361.436 534.182 361.436H552.129C553.005 361.436 553.714 360.737 553.714 359.876C553.714 359.014 553.005 358.315 552.129 358.315Z" fill="white"/>
<path id="Vector_44" d="M596.164 358.315H578.217C577.341 358.315 576.632 359.014 576.632 359.876C576.632 360.737 577.341 361.436 578.217 361.436H596.164C597.04 361.436 597.75 360.737 597.75 359.876C597.75 359.014 597.04 358.315 596.164 358.315Z" fill="white"/>
<path id="Vector_45" d="M536.893 365.619H534.005C533.13 365.619 532.42 366.318 532.42 367.179C532.42 368.041 533.13 368.74 534.005 368.74H536.893C537.769 368.74 538.478 368.041 538.478 367.179C538.478 366.318 537.769 365.619 536.893 365.619Z" fill="white"/>
<path id="Vector_46" d="M569.92 365.619H567.032C566.156 365.619 565.447 366.318 565.447 367.179C565.447 368.041 566.156 368.74 567.032 368.74H569.92C570.795 368.74 571.505 368.041 571.505 367.179C571.505 366.318 570.795 365.619 569.92 365.619Z" fill="white"/>
<path id="Vector_47" d="M579.277 365.619H576.389C575.514 365.619 574.804 366.318 574.804 367.179C574.804 368.041 575.514 368.74 576.389 368.74H579.277C580.153 368.74 580.862 368.041 580.862 367.179C580.862 366.318 580.153 365.619 579.277 365.619Z" fill="white"/>
<path id="Vector_48" d="M560.936 365.359H542.989C542.113 365.359 541.403 366.057 541.403 366.919C541.403 367.781 542.113 368.48 542.989 368.48H560.936C561.812 368.48 562.521 367.781 562.521 366.919C562.521 366.057 561.812 365.359 560.936 365.359Z" fill="white"/>
<path id="Vector_49" d="M604.972 365.359H587.024C586.148 365.359 585.439 366.057 585.439 366.919C585.439 367.781 586.148 368.48 587.024 368.48H604.972C605.847 368.48 606.557 367.781 606.557 366.919C606.557 366.057 605.847 365.359 604.972 365.359Z" fill="white"/>
<path id="Vector_50" d="M545.7 372.662H542.812C541.937 372.662 541.227 373.361 541.227 374.223C541.227 375.085 541.937 375.783 542.812 375.783H545.7C546.576 375.783 547.285 375.085 547.285 374.223C547.285 373.361 546.576 372.662 545.7 372.662Z" fill="white"/>
<path id="Vector_51" d="M578.727 372.662H575.839C574.963 372.662 574.254 373.361 574.254 374.223C574.254 375.085 574.963 375.783 575.839 375.783H578.727C579.602 375.783 580.312 375.085 580.312 374.223C580.312 373.361 579.602 372.662 578.727 372.662Z" fill="white"/>
<path id="Vector_52" d="M588.084 372.662H585.196C584.321 372.662 583.611 373.361 583.611 374.223C583.611 375.085 584.321 375.783 585.196 375.783H588.084C588.96 375.783 589.669 375.085 589.669 374.223C589.669 373.361 588.96 372.662 588.084 372.662Z" fill="white"/>
<path id="Vector_53" d="M569.743 372.402H551.796C550.92 372.402 550.211 373.101 550.211 373.963C550.211 374.824 550.92 375.523 551.796 375.523H569.743C570.619 375.523 571.329 374.824 571.329 373.963C571.329 373.101 570.619 372.402 569.743 372.402Z" fill="white"/>
<path id="Vector_54" d="M613.779 372.402H595.831C594.955 372.402 594.246 373.101 594.246 373.963C594.246 374.824 594.955 375.523 595.831 375.523H613.779C614.654 375.523 615.364 374.824 615.364 373.963C615.364 373.101 614.654 372.402 613.779 372.402Z" fill="white"/>
<path id="Vector_55" d="M554.507 379.706H551.62C550.744 379.706 550.034 380.405 550.034 381.266C550.034 382.128 550.744 382.827 551.62 382.827H554.507C555.383 382.827 556.092 382.128 556.092 381.266C556.092 380.405 555.383 379.706 554.507 379.706Z" fill="white"/>
<path id="Vector_56" d="M587.534 379.706H584.646C583.77 379.706 583.061 380.405 583.061 381.266C583.061 382.128 583.77 382.827 584.646 382.827H587.534C588.409 382.827 589.119 382.128 589.119 381.266C589.119 380.405 588.409 379.706 587.534 379.706Z" fill="white"/>
<path id="Vector_57" d="M596.891 379.706H594.003C593.128 379.706 592.418 380.405 592.418 381.266C592.418 382.128 593.128 382.827 594.003 382.827H596.891C597.767 382.827 598.476 382.128 598.476 381.266C598.476 380.405 597.767 379.706 596.891 379.706Z" fill="white"/>
<path id="Vector_58" d="M578.55 379.446H560.603C559.727 379.446 559.018 380.144 559.018 381.006C559.018 381.868 559.727 382.567 560.603 382.567H578.55C579.426 382.567 580.136 381.868 580.136 381.006C580.136 380.144 579.426 379.446 578.55 379.446Z" fill="white"/>
</g>
<g id="lower-half-code">
<path id="Vector_59" d="M561.112 407.714H558.225C557.349 407.714 556.64 408.412 556.64 409.274C556.64 410.136 557.349 410.835 558.225 410.835H561.112C561.988 410.835 562.698 410.136 562.698 409.274C562.698 408.412 561.988 407.714 561.112 407.714Z" fill="white"/>
<path id="Vector_60" d="M570.47 407.714H567.582C566.707 407.714 565.997 408.412 565.997 409.274C565.997 410.136 566.707 410.835 567.582 410.835H570.47C571.345 410.835 572.055 410.136 572.055 409.274C572.055 408.412 571.345 407.714 570.47 407.714Z" fill="white"/>
<path id="Vector_61" d="M596.164 407.974H578.217C577.341 407.974 576.632 408.673 576.632 409.534C576.632 410.396 577.341 411.095 578.217 411.095H596.164C597.04 411.095 597.75 410.396 597.75 409.534C597.75 408.673 597.04 407.974 596.164 407.974Z" fill="white"/>
<path id="Vector_62" d="M528.086 407.714H525.198C524.323 407.714 523.613 408.412 523.613 409.274C523.613 410.136 524.323 410.835 525.198 410.835H528.086C528.962 410.835 529.671 410.136 529.671 409.274C529.671 408.412 528.962 407.714 528.086 407.714Z" fill="white"/>
<path id="Vector_63" d="M552.129 407.974H534.182C533.306 407.974 532.596 408.673 532.596 409.534C532.596 410.396 533.306 411.095 534.182 411.095H552.129C553.005 411.095 553.714 410.396 553.714 409.534C553.714 408.673 553.005 407.974 552.129 407.974Z" fill="white"/>
<path id="Vector_64" d="M536.893 400.67H534.005C533.13 400.67 532.42 401.369 532.42 402.231C532.42 403.092 533.13 403.791 534.005 403.791H536.893C537.769 403.791 538.478 403.092 538.478 402.231C538.478 401.369 537.769 400.67 536.893 400.67Z" fill="white"/>
<path id="Vector_65" d="M569.92 400.67H567.032C566.156 400.67 565.447 401.369 565.447 402.231C565.447 403.092 566.156 403.791 567.032 403.791H569.92C570.795 403.791 571.505 403.092 571.505 402.231C571.505 401.369 570.795 400.67 569.92 400.67Z" fill="white"/>
<path id="Vector_66" d="M579.277 400.67H576.389C575.514 400.67 574.804 401.369 574.804 402.231C574.804 403.092 575.514 403.791 576.389 403.791H579.277C580.153 403.791 580.862 403.092 580.862 402.231C580.862 401.369 580.153 400.67 579.277 400.67Z" fill="white"/>
<path id="Vector_67" d="M560.936 400.93H542.989C542.113 400.93 541.403 401.629 541.403 402.491C541.403 403.353 542.113 404.051 542.989 404.051H560.936C561.812 404.051 562.521 403.353 562.521 402.491C562.521 401.629 561.812 400.93 560.936 400.93Z" fill="white"/>
<path id="Vector_68" d="M545.7 393.627H542.812C541.937 393.627 541.227 394.325 541.227 395.187C541.227 396.049 541.937 396.748 542.812 396.748H545.7C546.576 396.748 547.285 396.049 547.285 395.187C547.285 394.325 546.576 393.627 545.7 393.627Z" fill="white"/>
<path id="Vector_69" d="M578.727 393.627H575.839C574.963 393.627 574.254 394.325 574.254 395.187C574.254 396.049 574.963 396.748 575.839 396.748H578.727C579.602 396.748 580.312 396.049 580.312 395.187C580.312 394.325 579.602 393.627 578.727 393.627Z" fill="white"/>
<path id="Vector_70" d="M588.084 393.627H585.196C584.321 393.627 583.611 394.325 583.611 395.187C583.611 396.049 584.321 396.748 585.196 396.748H588.084C588.96 396.748 589.669 396.049 589.669 395.187C589.669 394.325 588.96 393.627 588.084 393.627Z" fill="white"/>
<path id="Vector_71" d="M569.743 393.887H551.796C550.92 393.887 550.211 394.586 550.211 395.447C550.211 396.309 550.92 397.008 551.796 397.008H569.743C570.619 397.008 571.329 396.309 571.329 395.447C571.329 394.586 570.619 393.887 569.743 393.887Z" fill="white"/>
<path id="Vector_72" d="M554.507 386.583H551.62C550.744 386.583 550.034 387.282 550.034 388.144C550.034 389.006 550.744 389.704 551.62 389.704H554.507C555.383 389.704 556.092 389.006 556.092 388.144C556.092 387.282 555.383 386.583 554.507 386.583Z" fill="white"/>
<path id="Vector_73" d="M587.534 386.583H584.646C583.77 386.583 583.061 387.282 583.061 388.144C583.061 389.006 583.77 389.704 584.646 389.704H587.534C588.409 389.704 589.119 389.006 589.119 388.144C589.119 387.282 588.409 386.583 587.534 386.583Z" fill="white"/>
<path id="Vector_74" d="M596.891 386.583H594.003C593.128 386.583 592.418 387.282 592.418 388.144C592.418 389.006 593.128 389.704 594.003 389.704H596.891C597.767 389.704 598.476 389.006 598.476 388.144C598.476 387.282 597.767 386.583 596.891 386.583Z" fill="white"/>
<path id="Vector_75" d="M578.55 386.844H560.603C559.727 386.844 559.018 387.542 559.018 388.404C559.018 389.266 559.727 389.964 560.603 389.964H578.55C579.426 389.964 580.136 389.266 580.136 388.404C580.136 387.542 579.426 386.844 578.55 386.844Z" fill="white"/>
</g>
<path id="Vector_76" d="M512.733 490.261L499.177 469.169L541.728 435.781L559.291 416.628C561.573 414.14 564.478 412.285 567.716 411.248C570.955 410.211 574.413 410.029 577.745 410.72C581.078 411.411 584.167 412.95 586.706 415.185C589.244 417.419 591.142 420.27 592.211 423.453C593.794 428.17 593.453 433.307 591.261 437.781C589.069 442.255 585.197 445.716 580.462 447.433L552.689 457.504L512.733 490.261Z" fill="#FFB6B6"/>
<path id="Vector_77" d="M194.657 337.329V439.843H267.62V337.329C267.621 336.592 267.382 335.873 266.938 335.28C266.494 334.686 265.868 334.248 265.152 334.03C264.815 333.921 264.461 333.867 264.106 333.87H198.181C197.719 333.87 197.261 333.958 196.834 334.132C196.407 334.305 196.018 334.56 195.691 334.881C195.364 335.202 195.104 335.583 194.927 336.004C194.749 336.424 194.658 336.874 194.657 337.329V337.329ZM223.131 372.553C223.15 370.532 223.979 368.6 225.438 367.178C226.897 365.755 228.867 364.957 230.92 364.957C232.973 364.957 234.944 365.755 236.402 367.178C237.861 368.6 238.69 370.532 238.709 372.553V384.448C238.698 386.474 237.873 388.414 236.414 389.843C234.954 391.273 232.979 392.075 230.92 392.075C228.861 392.075 226.886 391.273 225.427 389.843C223.967 388.414 223.142 386.474 223.131 384.448V372.553Z" fill="#2F2E41"/>
<path id="Vector_78" d="M194.434 436.564V446.45C194.436 446.962 194.642 447.453 195.009 447.816C195.376 448.179 195.874 448.385 196.394 448.389H265.883C266.404 448.386 266.902 448.181 267.27 447.817C267.637 447.454 267.843 446.962 267.843 446.45V436.564H194.434Z" fill="#3F3D56"/>
<path id="Vector_79" d="M79.8776 182.878V370.054C79.8795 372.439 80.843 374.726 82.5566 376.413C84.2701 378.1 86.5936 379.048 89.0169 379.05H370.813C373.236 379.048 375.56 378.1 377.273 376.413C378.987 374.726 379.95 372.439 379.952 370.054V182.878C379.946 180.495 378.981 178.211 377.268 176.527C375.555 174.843 373.234 173.896 370.813 173.893H89.0169C86.5958 173.896 84.2744 174.843 82.5615 176.527C80.8485 178.211 79.8834 180.495 79.8776 182.878Z" fill="#3F3D56"/>
<path id="Vector_80" d="M86.4884 185.207V367.745C86.4907 369.02 87.006 370.241 87.9215 371.142C88.837 372.043 90.0781 372.551 91.3729 372.553H368.467C369.762 372.551 371.003 372.043 371.918 371.142C372.834 370.241 373.349 369.02 373.351 367.745V185.207C373.351 183.931 372.837 182.708 371.921 181.804C371.006 180.901 369.763 180.392 368.467 180.39H91.3729C90.0765 180.392 88.8343 180.901 87.9186 181.804C87.0029 182.708 86.4886 183.931 86.4884 185.207Z" fill="white"/>
<path id="Vector_81" d="M137.912 447.719C138.194 448.067 138.553 448.348 138.961 448.54C139.369 448.732 139.816 448.831 140.268 448.829H305.121C305.572 448.828 306.017 448.729 306.424 448.537C306.831 448.346 307.189 448.068 307.473 447.724C307.757 447.379 307.96 446.976 308.066 446.545C308.172 446.114 308.179 445.665 308.086 445.23L305.527 433.266C305.421 432.778 305.193 432.324 304.863 431.945C304.533 431.566 304.112 431.274 303.639 431.097C303.296 430.964 302.931 430.896 302.562 430.897H142.817C142.449 430.896 142.084 430.964 141.741 431.097C141.267 431.274 140.846 431.566 140.516 431.945C140.186 432.324 139.958 432.778 139.852 433.266L137.293 445.23C137.202 445.664 137.21 446.113 137.317 446.543C137.424 446.974 137.628 447.376 137.912 447.719Z" fill="#2F2E41"/>
<path id="Vector_82" d="M359.474 205.535H100.199C99.929 205.529 99.6726 205.42 99.4841 205.23C99.2956 205.04 99.1901 204.785 99.1901 204.52C99.1901 204.255 99.2956 204 99.4841 203.81C99.6726 203.621 99.929 203.511 100.199 203.505H359.474C359.744 203.511 360 203.621 360.189 203.81C360.377 204 360.483 204.255 360.483 204.52C360.483 204.785 360.377 205.04 360.189 205.23C360 205.42 359.744 205.529 359.474 205.535V205.535Z" fill="#3F3D56"/>
<path id="Vector_83" d="M117.848 198.323C121.185 198.323 123.89 195.601 123.89 192.243C123.89 188.885 121.185 186.163 117.848 186.163C114.511 186.163 111.805 188.885 111.805 192.243C111.805 195.601 114.511 198.323 117.848 198.323Z" fill="#3F3D56"/>
<path id="Vector_84" d="M138.722 198.323C142.059 198.323 144.765 195.601 144.765 192.243C144.765 188.885 142.059 186.163 138.722 186.163C135.385 186.163 132.679 188.885 132.679 192.243C132.679 195.601 135.385 198.323 138.722 198.323Z" fill="#3F3D56"/>
<path id="Vector_85" d="M159.596 198.323C162.933 198.323 165.639 195.601 165.639 192.243C165.639 188.885 162.933 186.163 159.596 186.163C156.259 186.163 153.554 188.885 153.554 192.243C153.554 195.601 156.259 198.323 159.596 198.323Z" fill="#3F3D56"/>
<path id="Vector_86" d="M346.905 187.666H332.079C331.786 187.673 331.507 187.792 331.302 187.999C331.097 188.205 330.982 188.482 330.982 188.771C330.982 189.059 331.097 189.336 331.302 189.543C331.507 189.749 331.786 189.869 332.079 189.875H346.905C347.199 189.871 347.481 189.753 347.688 189.546C347.895 189.34 348.011 189.061 348.011 188.771C348.011 188.481 347.895 188.202 347.688 187.995C347.481 187.789 347.199 187.67 346.905 187.666Z" fill="#3F3D56"/>
<path id="Vector_87" d="M346.905 191.814H332.079C331.785 191.821 331.506 191.94 331.301 192.146C331.096 192.353 330.981 192.63 330.981 192.919C330.981 193.208 331.096 193.485 331.301 193.691C331.506 193.898 331.785 194.017 332.079 194.023H346.905C347.2 194.02 347.482 193.902 347.689 193.695C347.897 193.489 348.013 193.21 348.013 192.919C348.013 192.628 347.897 192.349 347.689 192.143C347.482 191.936 347.2 191.818 346.905 191.814V191.814Z" fill="#3F3D56"/>
<path id="Vector_88" d="M346.905 195.963H332.079C331.786 195.969 331.507 196.089 331.302 196.295C331.097 196.501 330.982 196.778 330.982 197.067C330.982 197.356 331.097 197.633 331.302 197.839C331.507 198.045 331.786 198.165 332.079 198.171H346.905C347.199 198.167 347.481 198.049 347.688 197.843C347.895 197.636 348.011 197.357 348.011 197.067C348.011 196.777 347.895 196.498 347.688 196.291C347.481 196.085 347.199 195.967 346.905 195.963V195.963Z" fill="#3F3D56"/>
<path id="Vector_89" d="M704.333 440.903C704.78 442.185 705.629 443.294 706.757 444.072C707.885 444.85 709.234 445.256 710.611 445.232L737.513 444.55C738.901 444.524 740.242 444.056 741.336 443.217C742.431 442.378 743.221 441.213 743.587 439.895L747.394 399.826C748.744 400.428 750.215 400.726 751.697 400.697C752.985 400.665 754.254 400.384 755.432 399.869C756.609 399.354 757.672 398.617 758.56 397.698C759.448 396.779 760.143 395.697 760.606 394.513C761.069 393.33 761.291 392.068 761.259 390.8C761.227 389.532 760.941 388.283 760.418 387.124C759.895 385.965 759.146 384.919 758.212 384.045C757.279 383.171 756.179 382.487 754.977 382.031C753.775 381.575 752.493 381.357 751.205 381.389C750.612 381.387 750.021 381.447 749.442 381.569C748.812 380.898 748.046 380.364 747.193 380.002C746.341 379.64 745.421 379.458 744.492 379.467L703.111 380.519C702.768 380.531 702.426 380.573 702.09 380.644C701.183 380.81 700.322 381.166 699.566 381.688C698.81 382.209 698.176 382.884 697.707 383.666C697.239 384.449 696.945 385.322 696.848 386.225C696.75 387.129 696.85 388.042 697.142 388.905L704.333 440.903ZM748.174 397.105L750.883 387.557C751.192 386.454 751.199 385.291 750.904 384.184C751.035 384.184 751.151 384.122 751.283 384.122C753.14 384.084 754.937 384.773 756.279 386.037C757.622 387.301 758.4 389.038 758.443 390.866C758.487 392.694 757.792 394.465 756.511 395.79C755.231 397.114 753.469 397.885 751.611 397.933C750.411 397.97 749.222 397.684 748.174 397.105Z" fill="#2F2E41"/>
<path id="Vector_90" d="M702.09 380.644C702.972 385.605 712.884 389.094 724.802 388.487C735.762 387.99 744.723 384.202 746.365 379.713C745.758 379.536 745.126 379.453 744.492 379.467L703.111 380.519C702.768 380.531 702.426 380.573 702.09 380.644V380.644Z" fill="#3F3D56"/>
<g id="coffee-right-bracket">
<path id="Vector_91" d="M726.987 418.884C727.041 418.871 727.093 418.848 727.14 418.818L732.982 415.054C733.053 415.009 733.111 414.947 733.151 414.874C733.191 414.801 733.212 414.719 733.212 414.636C733.212 414.553 733.191 414.471 733.151 414.398C733.111 414.325 733.053 414.263 732.982 414.218L726.91 410.303C726.854 410.267 726.792 410.242 726.726 410.229C726.661 410.217 726.593 410.217 726.528 410.23C726.462 410.244 726.4 410.27 726.345 410.307C726.29 410.344 726.242 410.391 726.206 410.446C726.169 410.501 726.144 410.562 726.131 410.627C726.119 410.692 726.12 410.758 726.133 410.823C726.147 410.887 726.174 410.948 726.212 411.002C726.249 411.056 726.298 411.103 726.354 411.139L731.777 414.635L726.584 417.982C726.484 418.046 726.41 418.144 726.375 418.257C726.341 418.371 726.349 418.492 726.397 418.601C726.445 418.709 726.531 418.797 726.639 418.849C726.747 418.901 726.87 418.913 726.987 418.884H726.987Z" fill="#6C63FF"/>
</g>
<g id="coffee-left-bracket">
<path id="Vector_92" d="M717.759 419.303C717.857 419.279 717.946 419.226 718.013 419.152C718.08 419.078 718.124 418.985 718.138 418.887C718.151 418.788 718.135 418.688 718.09 418.598C718.046 418.509 717.975 418.435 717.887 418.385L712.502 415.346L717.707 411.541C717.761 411.502 717.806 411.452 717.84 411.396C717.874 411.34 717.897 411.278 717.906 411.213C717.916 411.148 717.913 411.082 717.896 411.018C717.88 410.954 717.851 410.895 717.812 410.842C717.772 410.789 717.722 410.745 717.665 410.711C717.608 410.678 717.544 410.655 717.478 410.646C717.412 410.636 717.345 410.639 717.281 410.655C717.216 410.671 717.155 410.7 717.102 410.739L711.274 415C711.207 415.049 711.153 415.114 711.117 415.189C711.081 415.265 711.065 415.347 711.07 415.43C711.075 415.513 711.101 415.593 711.145 415.664C711.19 415.734 711.251 415.793 711.324 415.834L717.382 419.252C717.496 419.317 717.631 419.335 717.759 419.303V419.303Z" fill="#6C63FF"/>
</g>
<g id="coffee-slash">
<path id="Vector_93" d="M726.406 422.183C726.455 422.171 726.502 422.151 726.545 422.125C726.602 422.091 726.651 422.046 726.691 421.993C726.73 421.94 726.759 421.88 726.774 421.816C726.79 421.752 726.793 421.686 726.783 421.621C726.773 421.556 726.749 421.494 726.715 421.438L718.433 408.036C718.363 407.923 718.25 407.842 718.119 407.811C717.988 407.78 717.85 407.801 717.735 407.87C717.62 407.939 717.538 408.05 717.506 408.178C717.474 408.307 717.496 408.443 717.565 408.556L725.847 421.958C725.904 422.05 725.988 422.121 726.089 422.161C726.189 422.201 726.3 422.209 726.406 422.183Z" fill="#6C63FF"/>
</g>
<g id="blue-load-bar">
<path id="Vector_94" d="M260.815 260.71H215.941C214.11 260.71 212.626 262.17 212.626 263.972V268.288C212.626 270.09 214.11 271.55 215.941 271.55H260.815C262.646 271.55 264.13 270.09 264.13 268.288V263.972C264.13 262.17 262.646 260.71 260.815 260.71Z" fill="#6C63FF"/>
</g>
<path id="Vector_95" d="M286.973 282.391H189.783C187.953 282.391 186.469 283.852 186.469 285.654V289.969C186.469 291.771 187.953 293.232 189.783 293.232H286.973C288.803 293.232 290.287 291.771 290.287 289.969V285.654C290.287 283.852 288.803 282.391 286.973 282.391Z" fill="#E6E6E6"/>
<path id="Vector_96" d="M286.973 304.073H189.783C187.953 304.073 186.469 305.534 186.469 307.336V311.651C186.469 313.453 187.953 314.914 189.783 314.914H286.973C288.803 314.914 290.287 313.453 290.287 311.651V307.336C290.287 305.534 288.803 304.073 286.973 304.073Z" fill="#E6E6E6"/>
<path id="Vector_97" d="M295.211 376.676L295.432 377.36L295.443 377.383L302.069 397.212L309.692 420.063L324.033 463.005L324.172 469.675V469.698L325.238 523.358L322.284 530.633L325.609 542.56C325.609 542.56 324.079 524.531 315.878 534.885C311.232 540.769 305.799 546.789 301.34 552.433C307.838 555.022 314.441 557.363 321.149 559.457C322.597 559.913 324.056 560.347 325.516 560.78C325.829 560.871 326.141 560.962 326.454 561.054C348.688 567.526 371.673 571.162 394.848 571.875C396.052 571.909 397.234 571.932 398.381 571.954C398.786 571.966 399.18 571.977 399.574 571.977C400.872 571.989 402.157 572 403.455 572C406.073 572 408.679 571.962 411.274 571.886C430.48 571.353 449.574 568.811 468.234 564.303C468.107 556.721 467.759 547.861 467.261 538.397C467.029 533.756 461.828 528.727 461.515 523.87C461.295 520.221 465.963 516.789 465.72 513.083C464.145 490.267 462.175 499.025 460.716 482.868C460.565 481.283 460.426 479.766 460.299 478.318C459.36 467.942 458.712 461.454 458.712 461.454L464.944 422.788L474.733 362.081L473.98 360.861L473.134 360.45L421.503 335.296L418.7 328.227C417.883 326.19 416.466 324.44 414.63 323.203C412.795 321.965 410.626 321.297 408.401 321.283L374.39 321.146C372.625 321.138 370.883 321.545 369.31 322.332C367.736 323.119 366.376 324.264 365.343 325.673L356.133 338.227L295.211 376.676Z" fill="#3F3D56"/>
<path id="Vector_98" d="M331.876 453.449L324.172 469.675L318.913 480.758L309.866 527.383L305.336 532.115L301.455 515.364L260.839 524.241C259.506 516.954 260.482 524.487 259.659 516.494C259.891 516.266 260.134 516.038 260.378 515.81C261.026 515.217 261.571 514.658 261.559 514.122C261.096 486.551 262.486 439.629 274.093 411.203C275.911 406.562 278.308 402.161 281.229 398.101C281.461 397.794 281.681 397.486 281.901 397.178C287.253 389.8 290.636 382.537 295.432 377.372V377.36C295.461 377.337 295.489 377.31 295.513 377.28C295.53 377.272 295.546 377.26 295.559 377.246L328.505 360.051L329.918 399.139L330.926 427.235L331.876 453.449Z" fill="#3F3D56"/>
<path id="Vector_99" d="M450.672 458.058L460.294 478.324L463.653 485.382L472.697 532.002L477.212 536.723L481.102 519.975L482.929 519.606L515.89 512.887L525.497 542.919C527.663 539.368 528.516 535.19 527.912 531.091C527.309 526.992 525.286 523.224 522.186 520.424C521.53 519.84 520.983 519.271 520.998 518.733C521.545 486.304 519.53 427.09 501.331 402.719C495.551 394.985 492.084 387.281 487.038 381.9C487.022 381.884 487.022 381.869 487.007 381.869L474.728 362.08L473.978 360.865L473.135 360.45L450.672 458.058Z" fill="#3F3D56"/>
<path id="Ellipse 5" d="M392.378 311.618C417.368 311.618 437.626 291.678 437.626 267.08C437.626 242.482 417.368 222.542 392.378 222.542C367.388 222.542 347.13 242.482 347.13 267.08C347.13 291.678 367.388 311.618 392.378 311.618Z" fill="#FFB6B6"/>
<path id="Vector_100" d="M453.536 235.97C453.185 235.602 452.763 235.306 452.293 235.102C451.824 234.897 451.318 234.788 450.804 234.781L451.485 232.922C451.707 232.336 451.767 231.703 451.658 231.087C451.55 230.471 451.277 229.895 450.868 229.417C450.459 228.939 449.928 228.576 449.33 228.367C448.732 228.157 448.087 228.108 447.463 228.224L444.986 228.694L445.219 227.064C445.309 226.458 445.236 225.838 445.009 225.267C444.782 224.697 444.407 224.194 443.923 223.809C443.438 223.423 442.86 223.169 442.245 223.07C441.63 222.972 441 223.032 440.416 223.246C439.885 223.452 439.314 223.538 438.744 223.498C438.175 223.459 437.622 223.294 437.126 223.016C436.628 222.747 436.195 222.374 435.858 221.924C435.522 221.473 435.289 220.956 435.176 220.407L434.313 216.309L434.222 216.089C430.017 209.192 421.934 204.175 412.044 202.336C403.239 200.686 394.212 201.526 385.509 202.316C382.056 202.635 378.157 202.995 374.907 204.954C372.145 206.634 369.81 209.992 370.287 213.381C361.706 210.792 352.506 215.959 347.946 222.476C342.544 230.233 341.661 239.949 341.518 247.545C341.133 265.517 344.9 280.22 352.689 291.256C353.257 292.055 353.4 293.724 354.527 294.284L354.293 293.914C355.552 294.534 356.832 295.534 356.355 296.603C354.984 299.682 364.093 306.489 370.51 308.738C382.219 312.846 397.786 312.496 408.733 311.017L409.119 308.468C413.069 307.938 415.852 306.928 416.633 305.349C418.015 304.19 419.192 303.15 420.218 302.191L420.228 302.181C420.249 302.161 420.289 302.131 420.309 302.111C425.255 297.443 426.402 294.784 426.92 290.736C427.418 286.768 426.534 282.739 425.631 279.111C444.661 282.01 418.136 259.16 435.867 254.742C436.07 254.68 436.277 254.63 436.486 254.592C437.004 254.472 437.522 254.352 438.019 254.212C440.418 253.571 442.715 252.606 444.844 251.344C449.799 248.375 451.434 244.437 453.993 239.999C454.362 239.367 454.517 238.635 454.435 237.911C454.353 237.186 454.038 236.507 453.536 235.97V235.97Z" fill="#2F2E41"/>
<path id="Vector_101" d="M552.413 461.229C552.403 462.978 552.383 465.427 552.302 468.456C552.292 468.875 552.281 469.305 552.271 469.745C552.139 475.313 552.007 479.98 551.794 485.168C551.784 485.528 551.774 485.878 551.753 486.238C551.469 493.474 551.022 501.901 550.25 515.245C548.819 539.893 546.32 518.633 543.812 527.279C543.69 527.709 543.558 528.219 543.436 528.818C543.057 530.994 542.416 533.118 541.527 535.146C540.197 535.925 538.826 536.675 537.476 537.425C533.627 539.534 529.717 541.563 525.777 543.492C523.564 544.571 521.34 545.631 519.106 546.65C518.75 546.81 518.405 546.97 518.06 547.12C506.619 552.329 494.829 556.757 482.772 560.374C480.416 561.074 478.07 561.754 475.694 562.383C473.216 563.063 470.738 563.703 468.23 564.302C449.571 568.811 430.477 571.355 411.272 571.889C408.682 571.969 406.073 571.999 403.453 571.999C402.153 571.999 400.873 571.989 399.573 571.979C399.177 571.979 398.781 571.969 398.385 571.959C397.238 571.929 396.05 571.909 394.851 571.879C371.677 571.168 348.692 567.529 326.459 561.054L325.514 560.784C324.052 560.344 322.6 559.914 321.148 559.455C314.446 557.366 307.842 555.027 301.336 552.438C296.37 550.469 291.462 548.356 286.611 546.101C286.567 546.089 286.526 546.068 286.49 546.041C285.474 545.581 284.448 545.101 283.433 544.611C283.301 544.541 283.159 544.471 283.017 544.401C279.229 542.582 275.482 540.676 271.775 538.684C268.658 531.637 264.271 530.288 261.549 524.091C260.757 522.249 260.185 520.324 259.843 518.353C259.843 518.333 259.833 518.313 259.833 518.283C260.118 522.001 258.625 511.686 259.823 518.243C259.813 518.123 259.803 517.993 259.793 517.843C259.762 517.484 259.722 517.044 259.661 516.494C256.178 483.019 256.401 444.736 254.888 413.191C254.786 411.152 254.681 409.199 254.573 407.333C254.543 406.713 254.502 406.104 254.461 405.504C254.532 405.324 254.614 405.134 254.705 404.954C254.724 404.902 254.748 404.852 254.776 404.804C254.806 404.742 254.84 404.682 254.878 404.624C254.898 404.594 254.928 404.554 254.949 404.524C254.964 404.49 254.981 404.457 255 404.425C255.091 404.285 255.192 404.135 255.304 403.995C255.355 403.935 255.396 403.885 255.446 403.835C255.481 403.784 255.522 403.737 255.568 403.695C255.599 403.647 255.637 403.603 255.68 403.565C255.721 403.525 255.761 403.475 255.812 403.425C255.834 403.394 255.861 403.366 255.893 403.345C255.973 403.254 256.062 403.171 256.157 403.095C256.519 402.767 256.906 402.466 257.315 402.196C257.457 402.106 257.609 402.016 257.751 401.916C258.775 401.313 259.852 400.805 260.971 400.396C261.356 400.256 261.742 400.127 262.159 399.987C262.311 399.947 262.453 399.897 262.605 399.847C262.829 399.777 263.052 399.707 263.286 399.657C264.444 399.317 265.693 399.027 267.043 398.757C267.206 398.727 267.378 398.697 267.551 398.657C267.795 398.607 268.048 398.567 268.302 398.527C268.648 398.467 269.003 398.407 269.358 398.347C272.374 397.878 275.797 397.528 279.574 397.298C279.93 397.278 280.285 397.258 280.64 397.238C281.057 397.218 281.473 397.198 281.9 397.178C282.255 397.158 282.621 397.148 282.986 397.138C283.342 397.118 283.707 397.108 284.083 397.098C285.109 397.068 286.165 397.038 287.241 397.018C290.308 396.958 293.537 396.978 296.929 397.048C298.503 397.088 300.107 397.128 301.752 397.198C301.864 397.198 301.966 397.208 302.067 397.208C303.499 397.258 304.941 397.318 306.423 397.398C307.459 397.448 308.505 397.498 309.551 397.558C310.536 397.618 311.531 397.678 312.537 397.748C313.319 397.788 314.1 397.848 314.892 397.898C315.563 397.947 316.233 397.997 316.903 398.037L317.817 398.097C318.315 398.137 318.812 398.167 319.32 398.217C320.437 398.307 321.554 398.397 322.691 398.487C323.819 398.587 324.966 398.687 326.114 398.787C327.261 398.887 328.419 398.997 329.576 399.107C329.698 399.117 329.81 399.127 329.922 399.137C330.978 399.247 332.034 399.347 333.1 399.457C333.344 399.477 333.598 399.497 333.841 399.527C334.858 399.627 335.894 399.745 336.92 399.852C337.235 399.886 337.548 399.918 337.864 399.952C338.668 400.038 339.46 400.113 340.269 400.206C341.336 400.326 342.422 400.436 343.478 400.576C344.301 400.666 345.123 400.756 345.946 400.856C347.235 401.006 348.545 401.166 349.855 401.336C350.353 401.396 350.851 401.456 351.348 401.526C355.085 401.986 358.863 402.495 362.701 403.025C368.52 403.835 374.43 404.714 380.381 405.664C386.342 406.614 392.336 407.616 398.365 408.673C399.888 408.943 401.411 409.212 402.945 409.492C403.635 409.622 404.326 409.752 405.016 409.882C406.194 410.092 407.372 410.312 408.55 410.532C409.728 410.752 410.906 410.972 412.084 411.201C413.485 411.471 414.897 411.741 416.298 412.011C425.529 413.81 434.709 415.729 443.665 417.739C445.138 418.068 446.61 418.408 448.073 418.738C450.997 419.408 453.895 420.087 456.765 420.777C457.557 420.957 458.339 421.147 459.121 421.337C461.071 421.817 463.021 422.296 464.94 422.786L465.275 422.876C466.686 423.216 468.067 423.566 469.449 423.926C472.708 424.765 475.914 425.615 479.065 426.475C481.157 427.044 483.225 427.621 485.27 428.204C488.326 429.073 491.322 429.953 494.236 430.843C494.957 431.063 495.678 431.282 496.389 431.492C498.522 432.142 500.624 432.802 502.665 433.461C504.29 433.981 505.874 434.511 507.438 435.041C509.001 435.57 510.535 436.1 512.038 436.63C513.002 436.97 513.957 437.33 514.912 437.67C516.282 438.169 517.633 438.669 518.953 439.169C519.359 439.319 519.755 439.479 520.151 439.629C520.405 439.739 520.649 439.829 520.893 439.928C521.37 440.118 521.857 440.298 522.325 440.488C522.802 440.668 523.269 440.858 523.736 441.058C524.193 441.238 524.66 441.428 525.107 441.618C525.564 441.798 526.011 441.988 526.458 442.187C526.833 442.337 527.199 442.497 527.554 442.657C528.275 442.967 528.996 443.277 529.697 443.597C530.042 443.757 530.387 443.907 530.733 444.067L531.525 444.426C531.637 444.486 531.748 444.536 531.86 444.586C532.114 444.706 532.378 444.836 532.632 444.956C533.221 445.226 533.8 445.516 534.368 445.786C535.13 446.166 535.871 446.546 536.582 446.915C537.303 447.295 538.004 447.675 538.674 448.045C538.786 448.105 538.887 448.165 538.999 448.225C539.151 448.305 539.303 448.395 539.456 448.475C539.974 448.765 540.471 449.064 540.969 449.354C541.944 449.944 542.868 450.524 543.731 451.103C543.924 451.233 544.107 451.363 544.3 451.483C544.939 451.933 545.549 452.373 546.117 452.823C546.117 452.833 546.117 452.833 546.127 452.833C546.32 452.973 546.503 453.122 546.686 453.262C546.838 453.402 547.001 453.522 547.153 453.662C547.681 454.112 548.169 454.542 548.615 454.982C548.765 455.117 548.908 455.261 549.042 455.411C549.101 455.46 549.155 455.513 549.204 455.571C549.407 455.771 549.59 455.971 549.763 456.171C549.79 456.199 549.813 456.229 549.834 456.261C550.078 456.541 550.301 456.821 550.514 457.101C550.616 457.241 550.728 457.381 550.819 457.521C550.941 457.69 551.063 457.87 551.164 458.04C551.256 458.18 551.337 458.33 551.418 458.47C551.634 458.83 551.817 459.208 551.966 459.6C552.081 459.865 552.172 460.139 552.241 460.419C552.318 460.685 552.375 460.955 552.413 461.229V461.229Z" fill="#2F2E41"/>
<path id="Vector_102" opacity="0.2" d="M552.413 461.229C552.403 462.978 552.383 465.427 552.302 468.456C552.291 468.876 552.271 469.305 552.261 469.745C552.159 473.993 552.007 479.241 551.794 485.168C551.784 485.528 551.774 485.878 551.753 486.238C551.469 493.474 551.022 501.901 550.25 515.245C548.819 539.894 546.32 518.633 543.812 527.279C536.846 523.061 529.21 518.643 521.045 514.105C519.573 513.285 518.087 512.463 516.587 511.636C500.258 502.67 482.02 493.274 462.98 483.969C462.229 483.599 461.467 483.229 460.715 482.869C417.101 461.649 369.495 441.008 330.927 427.234C323.483 424.575 316.375 422.177 309.693 420.067C295.619 415.639 283.453 412.541 274.09 411.201C264.342 409.802 257.609 410.302 254.888 413.191C254.786 411.151 254.681 409.199 254.573 407.333C254.532 406.713 254.492 406.104 254.451 405.504C254.514 405.339 254.595 405.182 254.674 405.024C254.685 405.001 254.693 404.977 254.705 404.954C254.724 404.902 254.748 404.852 254.776 404.804C254.806 404.742 254.84 404.682 254.878 404.624C254.911 404.554 254.952 404.487 254.999 404.424C255.091 404.285 255.192 404.135 255.304 403.995C255.386 403.89 255.474 403.79 255.568 403.695C255.599 403.647 255.637 403.603 255.68 403.565C255.72 403.525 255.761 403.475 255.812 403.425C255.834 403.393 255.861 403.366 255.893 403.345C255.973 403.254 256.062 403.171 256.157 403.095C256.519 402.767 256.906 402.466 257.315 402.196C257.457 402.106 257.609 402.016 257.751 401.916C258.775 401.313 259.852 400.804 260.971 400.396C261.356 400.256 261.742 400.126 262.159 399.986C262.311 399.947 262.453 399.897 262.605 399.847C262.829 399.777 263.052 399.707 263.286 399.657C264.443 399.317 265.692 399.027 267.043 398.757C267.449 398.677 267.876 398.597 268.302 398.527C268.648 398.467 269.003 398.407 269.358 398.347C272.374 397.877 275.797 397.528 279.574 397.298C279.93 397.278 280.285 397.258 280.64 397.238C281.057 397.218 281.473 397.198 281.9 397.178C282.255 397.158 282.621 397.148 282.986 397.138C283.342 397.118 283.707 397.108 284.083 397.098C285.108 397.068 286.165 397.038 287.241 397.018C290.308 396.968 293.537 396.988 296.929 397.058C298.503 397.088 300.107 397.138 301.752 397.208C301.854 397.208 301.965 397.218 302.067 397.218C303.499 397.258 304.951 397.328 306.423 397.398C307.459 397.448 308.505 397.498 309.551 397.558C310.536 397.618 311.531 397.678 312.537 397.748C313.318 397.787 314.1 397.847 314.892 397.897C315.563 397.947 316.233 397.997 316.903 398.037C317.705 398.097 318.508 398.157 319.32 398.217C320.437 398.307 321.554 398.397 322.691 398.487C323.819 398.587 324.966 398.687 326.114 398.787C327.261 398.887 328.419 398.997 329.576 399.107C329.698 399.117 329.81 399.127 329.922 399.137C330.978 399.247 332.034 399.347 333.1 399.457C339.01 400.046 345.093 400.736 351.348 401.526C355.085 401.996 358.869 402.499 362.701 403.035C368.52 403.845 374.43 404.724 380.381 405.664C386.342 406.613 392.336 407.616 398.365 408.673C399.888 408.942 401.411 409.212 402.945 409.492C404.813 409.832 406.682 410.179 408.55 410.532C409.728 410.752 410.906 410.972 412.084 411.201C413.485 411.471 414.897 411.741 416.298 412.011C425.529 413.81 434.709 415.729 443.666 417.738C445.138 418.068 446.61 418.408 448.073 418.738C450.997 419.408 453.895 420.087 456.765 420.777C457.557 420.967 458.339 421.157 459.121 421.347C461.081 421.827 463.021 422.306 464.94 422.786V422.796C465.051 422.816 465.163 422.846 465.275 422.876C466.676 423.226 468.067 423.576 469.449 423.936C472.708 424.775 475.914 425.622 479.065 426.475C481.157 427.054 483.229 427.624 485.27 428.204C488.326 429.083 491.322 429.963 494.236 430.843C494.957 431.062 495.678 431.282 496.389 431.492C498.522 432.152 500.614 432.808 502.665 433.461C504.29 433.981 505.874 434.511 507.438 435.041C509.001 435.57 510.535 436.1 512.038 436.63C513.013 436.97 513.967 437.32 514.912 437.66C516.293 438.159 517.633 438.659 518.953 439.169C519.359 439.319 519.755 439.479 520.151 439.629C520.893 439.909 521.614 440.198 522.325 440.488C522.802 440.668 523.269 440.858 523.736 441.058C524.193 441.238 524.66 441.428 525.107 441.618C525.564 441.798 526.011 441.988 526.458 442.188C526.833 442.337 527.199 442.497 527.554 442.657C528.275 442.967 528.996 443.277 529.697 443.597C530.042 443.757 530.388 443.907 530.733 444.067L531.525 444.426C531.637 444.486 531.748 444.536 531.86 444.586C532.723 444.986 533.556 445.386 534.368 445.786C535.13 446.166 535.871 446.546 536.582 446.915C537.425 447.355 538.227 447.785 538.999 448.225C539.151 448.305 539.303 448.395 539.456 448.475C539.974 448.765 540.471 449.064 540.969 449.354C541.944 449.944 542.868 450.524 543.731 451.103C544.584 451.683 545.376 452.253 546.117 452.823C546.117 452.833 546.117 452.833 546.127 452.833C546.483 453.112 546.828 453.392 547.153 453.662C547.681 454.112 548.169 454.542 548.615 454.982C548.765 455.117 548.908 455.261 549.042 455.411C549.101 455.46 549.155 455.513 549.204 455.571C549.418 455.801 549.631 456.031 549.834 456.261C550.078 456.541 550.301 456.821 550.514 457.101C550.616 457.241 550.728 457.381 550.819 457.521C550.941 457.69 551.063 457.87 551.164 458.04C551.256 458.18 551.337 458.33 551.418 458.47C551.634 458.83 551.817 459.208 551.966 459.6C552.078 459.866 552.169 460.14 552.241 460.419C552.318 460.685 552.375 460.955 552.413 461.229V461.229Z" fill="black"/>
</g>
<defs>
<clipPath id="clip0_2_108">
<rect width="799" height="572" fill="white"/>
</clipPath>
</defs>
</svg>
