<svg width="36" height="36" viewBox="0 0 24 24" fill="none" xmlns="http://www.w3.org/2000/svg">
<path d="M19 0H5C2.239 0 0 2.239 0 5V19C0 21.761 2.239 24 5 24H19C21.762 24 24 21.761 24 19V5C24 2.239 21.762 0 19 0ZM8 19H5V8H8V19ZM6.5 6.732C5.534 6.732 4.75 5.942 4.75 4.968C4.75 3.994 5.534 3.204 6.5 3.204C7.466 3.204 8.25 3.994 8.25 4.968C8.25 5.942 7.467 6.732 6.5 6.732ZM20 19H17V13.396C17 10.028 13 10.283 13 13.396V19H10V8H13V9.765C14.396 7.179 20 6.988 20 12.241V19Z" fill="url(#paint0_linear_7_6)"/>
<defs>
<linearGradient id="paint0_linear_7_6" x1="22.5" y1="7.45057e-09" x2="3.5" y2="22" gradientUnits="userSpaceOnUse">
<stop stop-color="#38A4D3"/>
<stop offset="0.0001" stop-color="#38D39F"/>
<stop offset="1" stop-color="#38A4D3"/>
</linearGradient>
</defs>
</svg>
