<svg width="36" height="36" viewBox="0 0 24 24" fill="none" xmlns="http://www.w3.org/2000/svg">
<path d="M19 0H5C2.239 0 0 2.239 0 5V19C0 21.761 2.239 24 5 24H19C21.762 24 24 21.761 24 19V5C24 2.239 21.762 0 19 0ZM10.488 8.272L16.02 11.515L15.334 12.677L9.801 9.434L10.488 8.272V8.272ZM9.032 11.385L15.217 13.124L14.885 14.354L8.681 12.687L9.032 11.385V11.385ZM8.36 14.198L14.858 14.848L14.741 16.128L8.237 15.542L8.36 14.198ZM8.167 16.667H14.834V18H8.167V16.667ZM17 20H6V13H7V19H16V13H17V20ZM16.148 11.296L12.588 6.077L13.703 5.317L17.262 10.536L16.148 11.296ZM17.504 10.455L16.424 4.231L17.752 4L18.834 10.224L17.504 10.455V10.455Z" fill="url(#paint0_linear_7_8)"/>
<defs>
<linearGradient id="paint0_linear_7_8" x1="21" y1="1.5" x2="2.5" y2="21.5" gradientUnits="userSpaceOnUse">
<stop stop-color="#38D39F"/>
<stop offset="1" stop-color="#38A4D3"/>
</linearGradient>
</defs>
</svg>
